Coordinates
version=1
nRows=9
nColumns=24
inDegrees=yes

Units are S.I. units (second, meters, Newtons, ...)
Angles are in degrees.

endheader
time	pelvis_tilt	pelvis_list	pelvis_rotation	pelvis_tx	pelvis_ty	pelvis_tz	hip_flexion_r	hip_adduction_r	hip_rotation_r	knee_angle_r	ankle_angle_r	subtalar_angle_r	mtp_angle_r	hip_flexion_l	hip_adduction_l	hip_rotation_l	knee_angle_l	ankle_angle_l	subtalar_angle_l	mtp_angle_l	lumbar_extension	lumbar_bending	lumbar_rotation
      0.47100000	      3.66031787	      1.62886744	      3.00876584	     -0.78482183	      1.01306600	      0.26963952	     15.49548625	     -1.23656616	     -3.03481425	     -0.59500039	      3.68506356	    -15.83422710	      7.34516164	    -16.32111151	      2.25396859	      6.42645027	     -9.60840554	     12.58335368	    -12.46848166	     -1.29476859	    -11.73726679	     -2.54315633	     -0.81228525
      0.47516667	      3.75083156	      1.60897830	      3.01686884	     -0.77894040	      1.01268321	      0.27004447	     15.39672274	     -1.16401897	     -2.80521216	     -0.85704180	      3.74746540	    -15.88724661	      7.35745599	    -16.45021032	      2.19907408	      6.29254571	    -10.27077825	     12.67422803	    -12.24852487	     -1.28071537	    -11.79188363	     -2.48711625	     -0.82710988
      0.47933333	      3.81910730	      1.56965387	      3.00159560	     -0.77297092	      1.01229386	      0.27047986	     15.31718477	     -1.06125408	     -2.53450765	     -1.17066809	      3.73464186	    -15.99689053	      7.38295384	    -16.53395913	      2.12872665	      6.10095301	    -10.98585361	     12.76403850	    -11.97872773	     -1.24007354	    -11.80536051	     -2.40461461	     -0.80670864
      0.48350000	      3.89236540	      1.52208590	      2.96549759	     -0.76693135	      1.01193609	      0.27093840	     15.22462220	     -0.94127628	     -2.23921359	     -1.52451017	      3.68091193	    -16.11013505	      7.42220110	    -16.60560475	      2.05310300	      5.87247073	    -11.73890166	     12.82731632	    -11.68042112	     -1.17079561	    -11.81340102	     -2.31215650	     -0.76868340
      0.48766667	      3.96073009	      1.46575523	      2.91500663	     -0.76083345	      1.01159416	      0.27141358	     15.12900161	     -0.80514907	     -1.91884074	     -1.91077091	      3.57221483	    -16.24467317	      7.47559845	    -16.64295280	      1.96974431	      5.59815295	    -12.55566261	     12.86607181	    -11.35437446	     -1.06758163	    -11.80645797	     -2.21023782	     -0.71199254
      0.49183333	      4.02640175	      1.40575833	      2.85997249	     -0.75469328	      1.01127521	      0.27191444	     15.02770075	     -0.65990077	     -1.59556243	     -2.32564241	      3.41941391	    -16.37946828	      7.54411260	    -16.64076619	      1.87913052	      5.29257622	    -13.44533740	     12.87793572	    -10.99154669	     -0.92572385	    -11.79169759	     -2.10383857	     -0.64458890
      0.49600000	      4.09359099	      1.33734126	      2.79217251	     -0.74850922	      1.01098588	      0.27243787	     14.91699356	     -0.49944549	     -1.26318557	     -2.76172872	      3.21073084	    -16.53145356	      7.62968925	    -16.61587805	      1.77788250	      4.94926757	    -14.38043621	     12.85424147	    -10.59291510	     -0.73377586	    -11.77053120	     -1.98857405	     -0.55947908
      0.50016667	      4.15484666	      1.26902866	      2.72325574	     -0.74231298	      1.01071041	      0.27297135	     14.80876156	     -0.33714105	     -0.93958492	     -3.22096346	      2.96217356	    -16.67535923	      7.73171832	    -16.53939696	      1.67382806	      4.58797046	    -15.40491624	     12.80570215	    -10.17256857	     -0.48743976	    -11.73815502	     -1.87028501	     -0.47289396
      0.50433333	      4.21938021	      1.19401867	      2.66229157	     -0.73608831	      1.01047522	      0.27351982	     14.68383944	     -0.16649755	     -0.63273120	     -3.68393857	      2.67235535	    -16.82486958	      7.86116917	    -16.42683778	      1.55107504	      4.20160939	    -16.49452327	     12.70520168	     -9.70990961	     -0.14551263	    -11.70700956	     -1.74764167	     -0.36685395
